<?xml version="1.0" encoding="UTF-8"?>
<svg id="Capa_2" data-name="Capa 2" xmlns="http://www.w3.org/2000/svg" viewBox="0 0 201.9 348.16">
  <defs>
    <style>
      .cls-1 {
        stroke: #E63912;
        stroke-miterlimit: 10;
        stroke-width: 3px;
      }

      .cls-1, .cls-2 {
        fill: #E63912;
      }
    </style>
  </defs>
  <g id="Capa_1-2" data-name="Capa 1">
    <g>
      <path class="cls-2" d="M88.35,93.34c2.53-4.42,7.28-7.4,12.73-7.4s10.2,2.98,12.73,7.4h36.27c-3.52-23.91-24.12-42.26-49-42.26s-45.48,18.35-49,42.26h36.27Z"/>
      <path class="cls-2" d="M113.55,254.82c-2.53,4.42-7.28,7.4-12.74,7.4s-10.2-2.98-12.73-7.4h-36.27c3.52,23.91,24.12,42.26,49,42.26s45.48-18.35,49-42.26h-36.27Z"/>
      <path class="cls-1" d="M100.95,346.66c-54.84,0-99.45-44.61-99.45-99.45V100.95C1.5,46.11,46.11,1.5,100.95,1.5s99.45,44.61,99.45,99.45v146.26c0,54.84-44.61,99.45-99.45,99.45M100.95,2.77C46.82,2.77,2.78,46.82,2.78,100.95v146.26c0,54.13,44.04,98.17,98.17,98.17s98.17-44.04,98.17-98.17V100.95c0-54.13-44.04-98.17-98.17-98.17"/>
      <path class="cls-2" d="M100.95,330.08c-45.69,0-82.87-37.17-82.87-82.87v-60.71h1.28v60.71c0,44.99,36.6,81.59,81.59,81.59s81.59-36.6,81.59-81.59v-60.71h1.28v60.71c0,45.69-37.17,82.87-82.87,82.87"/>
      <path class="cls-1" d="M100.95,330.08c-45.69,0-82.87-37.17-82.87-82.87V100.95c0-45.69,37.17-82.87,82.87-82.87s82.87,37.17,82.87,82.87v146.26c0,45.69-37.18,82.87-82.87,82.87M100.95,19.35c-44.99,0-81.59,36.6-81.59,81.59v146.26c0,44.99,36.6,81.59,81.59,81.59s81.59-36.6,81.59-81.59V100.95c0-44.99-36.6-81.59-81.59-81.59"/>
      <path class="cls-1" d="M183.82,100.95h-1.28c0-44.99-36.6-81.59-81.6-81.59S19.35,55.96,19.35,100.95h-1.28c0-45.69,37.17-82.87,82.87-82.87s82.87,37.17,82.87,82.87"/>
      <path class="cls-1" d="M100.95,313.5c-36.55,0-66.29-29.74-66.29-66.29V100.95c0-36.55,29.74-66.29,66.29-66.29s66.29,29.74,66.29,66.29v146.27c0,36.55-29.74,66.29-66.29,66.29M100.95,35.93c-35.85,0-65.01,29.17-65.01,65.01v146.27c0,35.85,29.17,65.02,65.01,65.02s65.01-29.17,65.01-65.02V100.95c0-35.85-29.16-65.01-65.01-65.01"/>
      <polygon class="cls-2" points="51.95 108.91 150.22 108.91 150.22 148.04 103.26 148.04 103.26 166.94 136.3 166.94 136.3 206.07 103.26 206.07 103.26 239.24 51.95 239.24 51.95 108.91"/>
    </g>
  </g>
</svg>