<?xml version="1.0" encoding="UTF-8"?>
<svg id="Capa_2" data-name="Capa 2" xmlns="http://www.w3.org/2000/svg" viewBox="0 0 198.9 519.2">
  <defs>
    <style>
      .cls-1 {
        fill: #E63912;
      }
    </style>
  </defs>
  <g id="Capa_1-2" data-name="Capa 1">
    <g>
      <path class="cls-1" d="M86.85,91.84c2.53-4.42,7.28-7.4,12.73-7.4s10.2,2.98,12.73,7.4h36.27c-3.52-23.91-24.12-42.26-49-42.26s-45.48,18.35-49,42.26h36.27Z"/>
      <path class="cls-1" d="M112.05,427.36c-2.53,4.42-7.28,7.4-12.74,7.4s-10.2-2.98-12.73-7.4h-36.27c3.52,23.91,24.12,42.26,49,42.26s45.48-18.35,49-42.26h-36.27Z"/>
      <path class="cls-1" d="M99.45,519.2c-54.84,0-99.45-44.61-99.45-99.45V99.45C0,44.61,44.61,0,99.45,0s99.45,44.61,99.45,99.45v320.3c0,54.84-44.61,99.45-99.45,99.45M99.45,1.27C45.32,1.27,1.28,45.32,1.28,99.45v320.3c0,54.13,44.04,98.17,98.17,98.17s98.17-44.04,98.17-98.17V99.45C197.62,45.32,153.58,1.27,99.45,1.27"/>
      <path class="cls-1" d="M99.45,502.62c-45.69,0-82.87-37.17-82.87-82.87v-160.15h1.28v160.15c0,44.99,36.6,81.59,81.59,81.59s81.59-36.6,81.59-81.59v-160.15h1.28v160.15c0,45.69-37.17,82.87-82.87,82.87"/>
      <path class="cls-1" d="M99.45,502.62c-45.69,0-82.87-37.17-82.87-82.87V99.45c0-45.69,37.17-82.87,82.87-82.87s82.87,37.17,82.87,82.87v320.3c0,45.69-37.18,82.87-82.87,82.87M99.45,17.85c-44.99,0-81.59,36.6-81.59,81.59v320.3c0,44.99,36.6,81.59,81.59,81.59s81.59-36.6,81.59-81.59V99.45c0-44.99-36.6-81.59-81.59-81.59"/>
      <path class="cls-1" d="M182.32,99.45h-1.28c0-44.99-36.6-81.59-81.6-81.59S17.85,54.46,17.85,99.45h-1.28c0-45.69,37.17-82.87,82.87-82.87s82.87,37.17,82.87,82.87"/>
      <path class="cls-1" d="M99.45,486.04c-36.55,0-66.29-29.74-66.29-66.29V99.45c0-36.55,29.74-66.29,66.29-66.29s66.29,29.74,66.29,66.29v320.3c0,36.55-29.74,66.29-66.29,66.29M99.45,34.43c-35.85,0-65.01,29.17-65.01,65.01v320.3c0,35.85,29.17,65.02,65.01,65.02s65.01-29.17,65.01-65.02V99.45c0-35.85-29.16-65.01-65.01-65.01"/>
      <polygon class="cls-1" points="50.45 107.41 148.72 107.41 148.72 146.54 101.76 146.54 101.76 240.03 134.8 240.03 134.8 279.16 101.76 279.16 101.76 411.78 50.45 411.78 50.45 107.41"/>
    </g>
  </g>
</svg>