<?xml version="1.0" encoding="UTF-8"?>
<svg id="Capa_2" data-name="Capa 2" xmlns="http://www.w3.org/2000/svg" viewBox="0 0 1082.36 323.77">
  <defs>
    <style>
      .cls-1 {
        fill: #E63912;
      }
    </style>
  </defs>
  <g id="Capa_1-2" data-name="Capa 1">
    <g>
      <polygon class="cls-1" points="0 22.62 96.81 22.62 96.81 61.18 50.55 61.18 50.55 153.28 83.11 153.28 83.11 191.83 50.55 191.83 50.55 322.49 0 322.49 0 22.62"/>
      <polygon class="cls-1" points="112.87 22.62 209.26 22.62 209.26 61.18 163.42 61.18 163.42 153.28 195.98 153.28 195.98 191.83 163.42 191.83 163.42 283.93 209.26 283.93 209.26 322.49 112.87 322.49 112.87 22.62"/>
      <polygon class="cls-1" points="317.75 297.22 319.47 297.22 310.9 22.62 361.02 22.62 361.02 322.49 295.05 322.49 269.35 43.61 267.2 43.61 276.2 322.49 226.08 322.49 226.08 22.62 292.48 22.62 317.75 297.22"/>
      <path class="cls-1" d="M430.96,323.77c-23.56,0-52.69-7.28-52.69-46.26V81.11c0-38.98,29.13-46.27,52.69-46.27h13.28c23.56,0,52.69,7.28,52.69,46.27v196.4c0,38.98-29.13,46.26-52.69,46.26h-13.28ZM437.62,22.47L490.91,0v18.27l-53.31,8.02.02-3.82ZM446.39,72.38c0-7.05-.86-9.87-8.57-9.87s-9,2.82-9,9.87v213.43c0,7.52,1.28,9.87,9,9.87s8.57-2.35,8.57-9.87V72.38Z"/>
      <polygon class="cls-1" points="680.83 322.49 630.71 322.49 640.99 43.61 638.84 43.61 616.14 322.49 579.3 322.49 556.17 43.61 554.45 43.61 564.73 322.49 514.19 322.49 514.19 22.62 583.16 22.62 596.86 247.96 598.58 247.96 612.29 22.62 680.83 22.62 680.83 322.49"/>
      <polygon class="cls-1" points="794.67 322.49 698.29 322.49 698.29 283.93 744.13 283.93 744.13 191.83 711.57 191.83 711.57 153.28 744.13 153.28 744.13 61.18 698.29 61.18 698.29 22.62 794.67 22.62 794.67 322.49"/>
      <polygon class="cls-1" points="880.04 22.62 946.44 22.62 946.44 322.49 896.32 322.49 905.31 43.6 903.17 43.6 877.47 322.49 811.5 322.49 811.5 22.62 861.62 22.62 853.05 297.22 854.77 297.22 880.04 22.62"/>
      <path class="cls-1" d="M1016.39,323.77c-23.56,0-52.69-7.28-52.69-46.26V67.6c0-38.98,29.13-46.27,52.69-46.27h13.28c23.56,0,52.69,7.28,52.69,46.27v209.9c0,38.98-29.13,46.26-52.69,46.26h-13.28ZM1031.81,58.87c0-7.05-.86-9.87-8.57-9.87s-9,2.82-9,9.87v226.94c0,7.52,1.29,9.87,9,9.87s8.57-2.35,8.57-9.87V58.87Z"/>
    </g>
  </g>
</svg>